<svg width="130" height="45" viewBox="0 0 130 45" fill="none" xmlns="http://www.w3.org/2000/svg">
<circle cx="5" cy="5" r="1" fill="#00FFFF" fill-opacity="0.47"/>
<circle cx="5" cy="9" r="1" fill="#00FFFF" fill-opacity="0.47"/>
<circle cx="5" cy="13" r="1" fill="#00FFFF" fill-opacity="0.47"/>
<circle cx="5" cy="17" r="1" fill="#00FFFF" fill-opacity="0.47"/>
<circle cx="5" cy="21" r="1" fill="#00FFFF" fill-opacity="0.47"/>
<circle cx="5" cy="25" r="1" fill="#00FFFF" fill-opacity="0.47"/>
<circle cx="5" cy="29" r="1" fill="#00FFFF" fill-opacity="0.47"/>
<circle cx="5" cy="33" r="1" fill="#00FFFF" fill-opacity="0.47"/>
<circle cx="5" cy="37" r="1" fill="#00FFFF" fill-opacity="0.47"/>
<circle cx="5" cy="41" r="1" fill="#00FFFF" fill-opacity="0.47"/>
<circle cx="9" cy="5" r="1" fill="#00FFFF" fill-opacity="0.47"/>
<circle cx="9" cy="9" r="1" fill="#00FFFF" fill-opacity="0.47"/>
<circle cx="9" cy="13" r="1" fill="#00FFFF" fill-opacity="0.47"/>
<circle cx="9" cy="17" r="1" fill="#00FFFF" fill-opacity="0.47"/>
<circle cx="9" cy="21" r="1" fill="#00FFFF" fill-opacity="0.47"/>
<circle cx="9" cy="25" r="1" fill="#00FFFF" fill-opacity="0.47"/>
<circle cx="9" cy="29" r="1" fill="#00FFFF" fill-opacity="0.47"/>
<circle cx="9" cy="33" r="1" fill="#00FFFF" fill-opacity="0.47"/>
<circle cx="9" cy="37" r="1" fill="#00FFFF" fill-opacity="0.47"/>
<circle cx="9" cy="41" r="1" fill="#00FFFF" fill-opacity="0.47"/>
<circle cx="13" cy="5" r="1" fill="#00FFFF" fill-opacity="0.47"/>
<circle cx="13" cy="9" r="1" fill="#00FFFF" fill-opacity="0.47"/>
<circle cx="13" cy="13" r="1" fill="#00FFFF" fill-opacity="0.47"/>
<circle cx="13" cy="17" r="1" fill="#00FFFF" fill-opacity="0.47"/>
<circle cx="13" cy="21" r="1" fill="#00FFFF" fill-opacity="0.47"/>
<circle cx="13" cy="25" r="1" fill="#00FFFF" fill-opacity="0.47"/>
<circle cx="13" cy="29" r="1" fill="#00FFFF" fill-opacity="0.47"/>
<circle cx="13" cy="33" r="1" fill="#00FFFF" fill-opacity="0.47"/>
<circle cx="13" cy="37" r="1" fill="#00FFFF" fill-opacity="0.47"/>
<circle cx="13" cy="41" r="1" fill="#00FFFF" fill-opacity="0.47"/>
<circle cx="17" cy="5" r="1" fill="#00FFFF" fill-opacity="0.47"/>
<circle cx="17" cy="9" r="1" fill="#00FFFF" fill-opacity="0.47"/>
<circle cx="17" cy="13" r="1" fill="#00FFFF" fill-opacity="0.47"/>
<circle cx="17" cy="17" r="1" fill="#00FFFF" fill-opacity="0.47"/>
<circle cx="17" cy="21" r="1" fill="#00FFFF" fill-opacity="0.47"/>
<circle cx="17" cy="25" r="1" fill="#00FFFF" fill-opacity="0.47"/>
<circle cx="17" cy="29" r="1" fill="#00FFFF" fill-opacity="0.47"/>
<circle cx="17" cy="33" r="1" fill="#00FFFF" fill-opacity="0.47"/>
<circle cx="17" cy="37" r="1" fill="#00FFFF" fill-opacity="0.47"/>
<circle cx="17" cy="41" r="1" fill="#00FFFF" fill-opacity="0.47"/>
<circle cx="21" cy="5" r="1" fill="#00FFFF" fill-opacity="0.47"/>
<circle cx="21" cy="9" r="1" fill="#00FFFF" fill-opacity="0.47"/>
<circle cx="21" cy="13" r="1" fill="#00FFFF" fill-opacity="0.47"/>
<circle cx="21" cy="17" r="1" fill="#00FFFF" fill-opacity="0.47"/>
<circle cx="21" cy="21" r="1" fill="#00FFFF" fill-opacity="0.47"/>
<circle cx="21" cy="25" r="1" fill="#00FFFF" fill-opacity="0.47"/>
<circle cx="21" cy="29" r="1" fill="#00FFFF" fill-opacity="0.47"/>
<circle cx="21" cy="33" r="1" fill="#00FFFF" fill-opacity="0.47"/>
<circle cx="21" cy="37" r="1" fill="#00FFFF" fill-opacity="0.47"/>
<circle cx="21" cy="41" r="1" fill="#00FFFF" fill-opacity="0.47"/>
<circle cx="25" cy="5" r="1" fill="#00FFFF" fill-opacity="0.47"/>
<circle cx="25" cy="9" r="1" fill="#00FFFF" fill-opacity="0.47"/>
<circle cx="25" cy="13" r="1" fill="#00FFFF" fill-opacity="0.47"/>
<circle cx="25" cy="17" r="1" fill="#00FFFF" fill-opacity="0.47"/>
<circle cx="25" cy="21" r="1" fill="#00FFFF" fill-opacity="0.47"/>
<circle cx="25" cy="25" r="1" fill="#00FFFF" fill-opacity="0.47"/>
<circle cx="25" cy="29" r="1" fill="#00FFFF" fill-opacity="0.47"/>
<circle cx="25" cy="33" r="1" fill="#00FFFF" fill-opacity="0.47"/>
<circle cx="25" cy="37" r="1" fill="#00FFFF" fill-opacity="0.47"/>
<circle cx="25" cy="41" r="1" fill="#00FFFF" fill-opacity="0.47"/>
<circle cx="29" cy="5" r="1" fill="#00FFFF" fill-opacity="0.47"/>
<circle cx="29" cy="9" r="1" fill="#00FFFF" fill-opacity="0.47"/>
<circle cx="29" cy="13" r="1" fill="#00FFFF" fill-opacity="0.47"/>
<circle cx="29" cy="17" r="1" fill="#00FFFF" fill-opacity="0.47"/>
<circle cx="29" cy="21" r="1" fill="#00FFFF" fill-opacity="0.47"/>
<circle cx="29" cy="25" r="1" fill="#00FFFF" fill-opacity="0.47"/>
<circle cx="29" cy="29" r="1" fill="#00FFFF" fill-opacity="0.47"/>
<circle cx="29" cy="33" r="1" fill="#00FFFF" fill-opacity="0.47"/>
<circle cx="29" cy="37" r="1" fill="#00FFFF" fill-opacity="0.47"/>
<circle cx="29" cy="41" r="1" fill="#00FFFF" fill-opacity="0.47"/>
<circle cx="33" cy="5" r="1" fill="#00FFFF" fill-opacity="0.47"/>
<circle cx="33" cy="9" r="1" fill="#00FFFF" fill-opacity="0.47"/>
<circle cx="33" cy="13" r="1" fill="#00FFFF" fill-opacity="0.47"/>
<circle cx="33" cy="17" r="1" fill="#00FFFF" fill-opacity="0.47"/>
<circle cx="33" cy="21" r="1" fill="#00FFFF" fill-opacity="0.47"/>
<circle cx="33" cy="25" r="1" fill="#00FFFF" fill-opacity="0.47"/>
<circle cx="33" cy="29" r="1" fill="#00FFFF" fill-opacity="0.47"/>
<circle cx="33" cy="33" r="1" fill="#00FFFF" fill-opacity="0.47"/>
<circle cx="33" cy="37" r="1" fill="#00FFFF" fill-opacity="0.47"/>
<circle cx="33" cy="41" r="1" fill="#00FFFF" fill-opacity="0.47"/>
<circle cx="37" cy="5" r="1" fill="#00FFFF" fill-opacity="0.47"/>
<circle cx="37" cy="9" r="1" fill="#00FFFF" fill-opacity="0.47"/>
<circle cx="37" cy="13" r="1" fill="#00FFFF" fill-opacity="0.47"/>
<circle cx="37" cy="17" r="1" fill="#00FFFF" fill-opacity="0.47"/>
<circle cx="37" cy="21" r="1" fill="#00FFFF" fill-opacity="0.47"/>
<circle cx="37" cy="25" r="1" fill="#00FFFF" fill-opacity="0.47"/>
<circle cx="37" cy="29" r="1" fill="#00FFFF" fill-opacity="0.47"/>
<circle cx="37" cy="33" r="1" fill="#00FFFF" fill-opacity="0.47"/>
<circle cx="37" cy="37" r="1" fill="#00FFFF" fill-opacity="0.47"/>
<circle cx="37" cy="41" r="1" fill="#00FFFF" fill-opacity="0.47"/>
<circle cx="41" cy="5" r="1" fill="#00FFFF" fill-opacity="0.47"/>
<circle cx="41" cy="9" r="1" fill="#00FFFF" fill-opacity="0.47"/>
<circle cx="41" cy="13" r="1" fill="#00FFFF" fill-opacity="0.47"/>
<circle cx="41" cy="17" r="1" fill="#00FFFF" fill-opacity="0.47"/>
<circle cx="41" cy="21" r="1" fill="#00FFFF" fill-opacity="0.47"/>
<circle cx="41" cy="25" r="1" fill="#00FFFF" fill-opacity="0.47"/>
<circle cx="41" cy="29" r="1" fill="#00FFFF" fill-opacity="0.47"/>
<circle cx="41" cy="33" r="1" fill="#00FFFF" fill-opacity="0.47"/>
<circle cx="41" cy="37" r="1" fill="#00FFFF" fill-opacity="0.47"/>
<circle cx="41" cy="41" r="1" fill="#00FFFF" fill-opacity="0.47"/>
<circle cx="45" cy="5" r="1" fill="#00FFFF" fill-opacity="0.47"/>
<circle cx="45" cy="9" r="1" fill="#00FFFF" fill-opacity="0.47"/>
<circle cx="45" cy="13" r="1" fill="#00FFFF" fill-opacity="0.47"/>
<circle cx="45" cy="17" r="1" fill="#00FFFF" fill-opacity="0.47"/>
<circle cx="45" cy="21" r="1" fill="#00FFFF" fill-opacity="0.47"/>
<circle cx="45" cy="25" r="1" fill="#00FFFF" fill-opacity="0.47"/>
<circle cx="45" cy="29" r="1" fill="#00FFFF" fill-opacity="0.47"/>
<circle cx="45" cy="33" r="1" fill="#00FFFF" fill-opacity="0.47"/>
<circle cx="45" cy="37" r="1" fill="#00FFFF" fill-opacity="0.47"/>
<circle cx="45" cy="41" r="1" fill="#00FFFF" fill-opacity="0.47"/>
<circle cx="49" cy="5" r="1" fill="#00FFFF" fill-opacity="0.47"/>
<circle cx="49" cy="9" r="1" fill="#00FFFF" fill-opacity="0.47"/>
<circle cx="49" cy="13" r="1" fill="#00FFFF" fill-opacity="0.47"/>
<circle cx="49" cy="17" r="1" fill="#00FFFF" fill-opacity="0.47"/>
<circle cx="49" cy="21" r="1" fill="#00FFFF" fill-opacity="0.47"/>
<circle cx="49" cy="25" r="1" fill="#00FFFF" fill-opacity="0.47"/>
<circle cx="49" cy="29" r="1" fill="#00FFFF" fill-opacity="0.47"/>
<circle cx="49" cy="33" r="1" fill="#00FFFF" fill-opacity="0.47"/>
<circle cx="49" cy="37" r="1" fill="#00FFFF" fill-opacity="0.47"/>
<circle cx="49" cy="41" r="1" fill="#00FFFF" fill-opacity="0.47"/>
<circle cx="53" cy="5" r="1" fill="#00FFFF" fill-opacity="0.47"/>
<circle cx="53" cy="9" r="1" fill="#00FFFF" fill-opacity="0.47"/>
<circle cx="53" cy="13" r="1" fill="#00FFFF" fill-opacity="0.47"/>
<circle cx="53" cy="17" r="1" fill="#00FFFF" fill-opacity="0.47"/>
<circle cx="53" cy="21" r="1" fill="#00FFFF" fill-opacity="0.47"/>
<circle cx="53" cy="25" r="1" fill="#00FFFF" fill-opacity="0.47"/>
<circle cx="53" cy="29" r="1" fill="#00FFFF" fill-opacity="0.47"/>
<circle cx="53" cy="33" r="1" fill="#00FFFF" fill-opacity="0.47"/>
<circle cx="53" cy="37" r="1" fill="#00FFFF" fill-opacity="0.47"/>
<circle cx="53" cy="41" r="1" fill="#00FFFF" fill-opacity="0.47"/>
<circle cx="57" cy="5" r="1" fill="#00FFFF" fill-opacity="0.47"/>
<circle cx="57" cy="9" r="1" fill="#00FFFF" fill-opacity="0.47"/>
<circle cx="57" cy="13" r="1" fill="#00FFFF" fill-opacity="0.47"/>
<circle cx="57" cy="17" r="1" fill="#00FFFF" fill-opacity="0.47"/>
<circle cx="57" cy="21" r="1" fill="#00FFFF" fill-opacity="0.47"/>
<circle cx="57" cy="25" r="1" fill="#00FFFF" fill-opacity="0.47"/>
<circle cx="57" cy="29" r="1" fill="#00FFFF" fill-opacity="0.47"/>
<circle cx="57" cy="33" r="1" fill="#00FFFF" fill-opacity="0.47"/>
<circle cx="57" cy="37" r="1" fill="#00FFFF" fill-opacity="0.47"/>
<circle cx="57" cy="41" r="1" fill="#00FFFF" fill-opacity="0.47"/>
<circle cx="61" cy="5" r="1" fill="#00FFFF" fill-opacity="0.47"/>
<circle cx="61" cy="9" r="1" fill="#00FFFF" fill-opacity="0.47"/>
<circle cx="61" cy="13" r="1" fill="#00FFFF" fill-opacity="0.47"/>
<circle cx="61" cy="17" r="1" fill="#00FFFF" fill-opacity="0.47"/>
<circle cx="61" cy="21" r="1" fill="#00FFFF" fill-opacity="0.47"/>
<circle cx="61" cy="25" r="1" fill="#00FFFF" fill-opacity="0.47"/>
<circle cx="61" cy="29" r="1" fill="#00FFFF" fill-opacity="0.47"/>
<circle cx="61" cy="33" r="1" fill="#00FFFF" fill-opacity="0.47"/>
<circle cx="61" cy="37" r="1" fill="#00FFFF" fill-opacity="0.47"/>
<circle cx="61" cy="41" r="1" fill="#00FFFF" fill-opacity="0.47"/>
<circle cx="65" cy="5" r="1" fill="#00FFFF" fill-opacity="0.47"/>
<circle cx="65" cy="9" r="1" fill="#00FFFF" fill-opacity="0.47"/>
<circle cx="65" cy="13" r="1" fill="#00FFFF" fill-opacity="0.47"/>
<circle cx="65" cy="17" r="1" fill="#00FFFF" fill-opacity="0.47"/>
<circle cx="65" cy="21" r="1" fill="#00FFFF" fill-opacity="0.47"/>
<circle cx="65" cy="25" r="1" fill="#00FFFF" fill-opacity="0.47"/>
<circle cx="65" cy="29" r="1" fill="#00FFFF" fill-opacity="0.47"/>
<circle cx="65" cy="33" r="1" fill="#00FFFF" fill-opacity="0.47"/>
<circle cx="65" cy="37" r="1" fill="#00FFFF" fill-opacity="0.47"/>
<circle cx="65" cy="41" r="1" fill="#00FFFF" fill-opacity="0.47"/>
<circle cx="69" cy="5" r="1" fill="#00FFFF" fill-opacity="0.47"/>
<circle cx="69" cy="9" r="1" fill="#00FFFF" fill-opacity="0.47"/>
<circle cx="69" cy="13" r="1" fill="#00FFFF" fill-opacity="0.47"/>
<circle cx="69" cy="17" r="1" fill="#00FFFF" fill-opacity="0.47"/>
<circle cx="69" cy="21" r="1" fill="#00FFFF" fill-opacity="0.47"/>
<circle cx="69" cy="25" r="1" fill="#00FFFF" fill-opacity="0.47"/>
<circle cx="69" cy="29" r="1" fill="#00FFFF" fill-opacity="0.47"/>
<circle cx="69" cy="33" r="1" fill="#00FFFF" fill-opacity="0.47"/>
<circle cx="69" cy="37" r="1" fill="#00FFFF" fill-opacity="0.47"/>
<circle cx="69" cy="41" r="1" fill="#00FFFF" fill-opacity="0.47"/>
<circle cx="73" cy="5" r="1" fill="#00FFFF" fill-opacity="0.47"/>
<circle cx="73" cy="9" r="1" fill="#00FFFF" fill-opacity="0.47"/>
<circle cx="73" cy="13" r="1" fill="#00FFFF" fill-opacity="0.47"/>
<circle cx="73" cy="17" r="1" fill="#00FFFF" fill-opacity="0.47"/>
<circle cx="73" cy="21" r="1" fill="#00FFFF" fill-opacity="0.47"/>
<circle cx="73" cy="25" r="1" fill="#00FFFF" fill-opacity="0.47"/>
<circle cx="73" cy="29" r="1" fill="#00FFFF" fill-opacity="0.47"/>
<circle cx="73" cy="33" r="1" fill="#00FFFF" fill-opacity="0.47"/>
<circle cx="73" cy="37" r="1" fill="#00FFFF" fill-opacity="0.47"/>
<circle cx="73" cy="41" r="1" fill="#00FFFF" fill-opacity="0.47"/>
<circle cx="77" cy="5" r="1" fill="#00FFFF" fill-opacity="0.47"/>
<circle cx="77" cy="9" r="1" fill="#00FFFF" fill-opacity="0.47"/>
<circle cx="77" cy="13" r="1" fill="#00FFFF" fill-opacity="0.47"/>
<circle cx="77" cy="17" r="1" fill="#00FFFF" fill-opacity="0.47"/>
<circle cx="77" cy="21" r="1" fill="#00FFFF" fill-opacity="0.47"/>
<circle cx="77" cy="25" r="1" fill="#00FFFF" fill-opacity="0.47"/>
<circle cx="77" cy="29" r="1" fill="#00FFFF" fill-opacity="0.47"/>
<circle cx="77" cy="33" r="1" fill="#00FFFF" fill-opacity="0.47"/>
<circle cx="77" cy="37" r="1" fill="#00FFFF" fill-opacity="0.47"/>
<circle cx="77" cy="41" r="1" fill="#00FFFF" fill-opacity="0.47"/>
<circle cx="81" cy="5" r="1" fill="#00FFFF" fill-opacity="0.47"/>
<circle cx="81" cy="9" r="1" fill="#00FFFF" fill-opacity="0.47"/>
<circle cx="81" cy="13" r="1" fill="#00FFFF" fill-opacity="0.47"/>
<circle cx="81" cy="17" r="1" fill="#00FFFF" fill-opacity="0.47"/>
<circle cx="81" cy="21" r="1" fill="#00FFFF" fill-opacity="0.47"/>
<circle cx="81" cy="25" r="1" fill="#00FFFF" fill-opacity="0.47"/>
<circle cx="81" cy="29" r="1" fill="#00FFFF" fill-opacity="0.47"/>
<circle cx="81" cy="33" r="1" fill="#00FFFF" fill-opacity="0.47"/>
<circle cx="81" cy="37" r="1" fill="#00FFFF" fill-opacity="0.47"/>
<circle cx="81" cy="41" r="1" fill="#00FFFF" fill-opacity="0.47"/>
<circle cx="85" cy="5" r="1" fill="#00FFFF" fill-opacity="0.47"/>
<circle cx="85" cy="9" r="1" fill="#00FFFF" fill-opacity="0.47"/>
<circle cx="85" cy="13" r="1" fill="#00FFFF" fill-opacity="0.47"/>
<circle cx="85" cy="17" r="1" fill="#00FFFF" fill-opacity="0.47"/>
<circle cx="85" cy="21" r="1" fill="#00FFFF" fill-opacity="0.47"/>
<circle cx="85" cy="25" r="1" fill="#00FFFF" fill-opacity="0.47"/>
<circle cx="85" cy="29" r="1" fill="#00FFFF" fill-opacity="0.47"/>
<circle cx="85" cy="33" r="1" fill="#00FFFF" fill-opacity="0.47"/>
<circle cx="85" cy="37" r="1" fill="#00FFFF" fill-opacity="0.47"/>
<circle cx="85" cy="41" r="1" fill="#00FFFF" fill-opacity="0.47"/>
<circle cx="89" cy="5" r="1" fill="#00FFFF" fill-opacity="0.47"/>
<circle cx="89" cy="9" r="1" fill="#00FFFF" fill-opacity="0.47"/>
<circle cx="89" cy="13" r="1" fill="#00FFFF" fill-opacity="0.47"/>
<circle cx="89" cy="17" r="1" fill="#00FFFF" fill-opacity="0.47"/>
<circle cx="89" cy="21" r="1" fill="#00FFFF" fill-opacity="0.47"/>
<circle cx="89" cy="25" r="1" fill="#00FFFF" fill-opacity="0.47"/>
<circle cx="89" cy="29" r="1" fill="#00FFFF" fill-opacity="0.47"/>
<circle cx="89" cy="33" r="1" fill="#00FFFF" fill-opacity="0.47"/>
<circle cx="89" cy="37" r="1" fill="#00FFFF" fill-opacity="0.47"/>
<circle cx="89" cy="41" r="1" fill="#00FFFF" fill-opacity="0.47"/>
<circle cx="93" cy="5" r="1" fill="#00FFFF" fill-opacity="0.47"/>
<circle cx="93" cy="9" r="1" fill="#00FFFF" fill-opacity="0.47"/>
<circle cx="93" cy="13" r="1" fill="#00FFFF" fill-opacity="0.47"/>
<circle cx="93" cy="17" r="1" fill="#00FFFF" fill-opacity="0.47"/>
<circle cx="93" cy="21" r="1" fill="#00FFFF" fill-opacity="0.47"/>
<circle cx="93" cy="25" r="1" fill="#00FFFF" fill-opacity="0.47"/>
<circle cx="93" cy="29" r="1" fill="#00FFFF" fill-opacity="0.47"/>
<circle cx="93" cy="33" r="1" fill="#00FFFF" fill-opacity="0.47"/>
<circle cx="93" cy="37" r="1" fill="#00FFFF" fill-opacity="0.47"/>
<circle cx="93" cy="41" r="1" fill="#00FFFF" fill-opacity="0.47"/>
<circle cx="97" cy="5" r="1" fill="#00FFFF" fill-opacity="0.47"/>
<circle cx="97" cy="9" r="1" fill="#00FFFF" fill-opacity="0.47"/>
<circle cx="97" cy="13" r="1" fill="#00FFFF" fill-opacity="0.47"/>
<circle cx="97" cy="17" r="1" fill="#00FFFF" fill-opacity="0.47"/>
<circle cx="97" cy="21" r="1" fill="#00FFFF" fill-opacity="0.47"/>
<circle cx="97" cy="25" r="1" fill="#00FFFF" fill-opacity="0.47"/>
<circle cx="97" cy="29" r="1" fill="#00FFFF" fill-opacity="0.47"/>
<circle cx="97" cy="33" r="1" fill="#00FFFF" fill-opacity="0.47"/>
<circle cx="97" cy="37" r="1" fill="#00FFFF" fill-opacity="0.47"/>
<circle cx="97" cy="41" r="1" fill="#00FFFF" fill-opacity="0.47"/>
<circle cx="101" cy="5" r="1" fill="#00FFFF" fill-opacity="0.47"/>
<circle cx="101" cy="9" r="1" fill="#00FFFF" fill-opacity="0.47"/>
<circle cx="101" cy="13" r="1" fill="#00FFFF" fill-opacity="0.47"/>
<circle cx="101" cy="17" r="1" fill="#00FFFF" fill-opacity="0.47"/>
<circle cx="101" cy="21" r="1" fill="#00FFFF" fill-opacity="0.47"/>
<circle cx="101" cy="25" r="1" fill="#00FFFF" fill-opacity="0.47"/>
<circle cx="101" cy="29" r="1" fill="#00FFFF" fill-opacity="0.47"/>
<circle cx="101" cy="33" r="1" fill="#00FFFF" fill-opacity="0.47"/>
<circle cx="101" cy="37" r="1" fill="#00FFFF" fill-opacity="0.47"/>
<circle cx="101" cy="41" r="1" fill="#00FFFF" fill-opacity="0.47"/>
<circle cx="105" cy="5" r="1" fill="#00FFFF" fill-opacity="0.47"/>
<circle cx="105" cy="9" r="1" fill="#00FFFF" fill-opacity="0.47"/>
<circle cx="105" cy="13" r="1" fill="#00FFFF" fill-opacity="0.47"/>
<circle cx="105" cy="17" r="1" fill="#00FFFF" fill-opacity="0.47"/>
<circle cx="105" cy="21" r="1" fill="#00FFFF" fill-opacity="0.47"/>
<circle cx="105" cy="25" r="1" fill="#00FFFF" fill-opacity="0.47"/>
<circle cx="105" cy="29" r="1" fill="#00FFFF" fill-opacity="0.47"/>
<circle cx="105" cy="33" r="1" fill="#00FFFF" fill-opacity="0.47"/>
<circle cx="105" cy="37" r="1" fill="#00FFFF" fill-opacity="0.47"/>
<circle cx="105" cy="41" r="1" fill="#00FFFF" fill-opacity="0.47"/>
<circle cx="109" cy="5" r="1" fill="#00FFFF" fill-opacity="0.47"/>
<circle cx="109" cy="9" r="1" fill="#00FFFF" fill-opacity="0.47"/>
<circle cx="109" cy="13" r="1" fill="#00FFFF" fill-opacity="0.47"/>
<circle cx="109" cy="17" r="1" fill="#00FFFF" fill-opacity="0.47"/>
<circle cx="109" cy="21" r="1" fill="#00FFFF" fill-opacity="0.47"/>
<circle cx="109" cy="25" r="1" fill="#00FFFF" fill-opacity="0.47"/>
<circle cx="109" cy="29" r="1" fill="#00FFFF" fill-opacity="0.47"/>
<circle cx="109" cy="33" r="1" fill="#00FFFF" fill-opacity="0.47"/>
<circle cx="109" cy="37" r="1" fill="#00FFFF" fill-opacity="0.47"/>
<circle cx="109" cy="41" r="1" fill="#00FFFF" fill-opacity="0.47"/>
<circle cx="113" cy="5" r="1" fill="#00FFFF" fill-opacity="0.47"/>
<circle cx="113" cy="9" r="1" fill="#00FFFF" fill-opacity="0.47"/>
<circle cx="113" cy="13" r="1" fill="#00FFFF" fill-opacity="0.47"/>
<circle cx="113" cy="17" r="1" fill="#00FFFF" fill-opacity="0.47"/>
<circle cx="113" cy="21" r="1" fill="#00FFFF" fill-opacity="0.47"/>
<circle cx="113" cy="25" r="1" fill="#00FFFF" fill-opacity="0.47"/>
<circle cx="113" cy="29" r="1" fill="#00FFFF" fill-opacity="0.47"/>
<circle cx="113" cy="33" r="1" fill="#00FFFF" fill-opacity="0.47"/>
<circle cx="113" cy="37" r="1" fill="#00FFFF" fill-opacity="0.47"/>
<circle cx="113" cy="41" r="1" fill="#00FFFF" fill-opacity="0.47"/>
<circle cx="117" cy="5" r="1" fill="#00FFFF" fill-opacity="0.47"/>
<circle cx="117" cy="9" r="1" fill="#00FFFF" fill-opacity="0.47"/>
<circle cx="117" cy="13" r="1" fill="#00FFFF" fill-opacity="0.47"/>
<circle cx="117" cy="17" r="1" fill="#00FFFF" fill-opacity="0.47"/>
<circle cx="117" cy="21" r="1" fill="#00FFFF" fill-opacity="0.47"/>
<circle cx="117" cy="25" r="1" fill="#00FFFF" fill-opacity="0.47"/>
<circle cx="117" cy="29" r="1" fill="#00FFFF" fill-opacity="0.47"/>
<circle cx="117" cy="33" r="1" fill="#00FFFF" fill-opacity="0.47"/>
<circle cx="117" cy="37" r="1" fill="#00FFFF" fill-opacity="0.47"/>
<circle cx="117" cy="41" r="1" fill="#00FFFF" fill-opacity="0.47"/>
<circle cx="121" cy="5" r="1" fill="#00FFFF" fill-opacity="0.47"/>
<circle cx="121" cy="9" r="1" fill="#00FFFF" fill-opacity="0.47"/>
<circle cx="121" cy="13" r="1" fill="#00FFFF" fill-opacity="0.47"/>
<circle cx="121" cy="17" r="1" fill="#00FFFF" fill-opacity="0.47"/>
<circle cx="121" cy="21" r="1" fill="#00FFFF" fill-opacity="0.47"/>
<circle cx="121" cy="25" r="1" fill="#00FFFF" fill-opacity="0.47"/>
<circle cx="121" cy="29" r="1" fill="#00FFFF" fill-opacity="0.47"/>
<circle cx="121" cy="33" r="1" fill="#00FFFF" fill-opacity="0.47"/>
<circle cx="121" cy="37" r="1" fill="#00FFFF" fill-opacity="0.47"/>
<circle cx="121" cy="41" r="1" fill="#00FFFF" fill-opacity="0.47"/>
<circle cx="125" cy="5" r="1" fill="#00FFFF" fill-opacity="0.47"/>
<circle cx="125" cy="9" r="1" fill="#00FFFF" fill-opacity="0.47"/>
<circle cx="125" cy="13" r="1" fill="#00FFFF" fill-opacity="0.47"/>
<circle cx="125" cy="17" r="1" fill="#00FFFF" fill-opacity="0.47"/>
<circle cx="125" cy="21" r="1" fill="#00FFFF" fill-opacity="0.47"/>
<circle cx="125" cy="25" r="1" fill="#00FFFF" fill-opacity="0.47"/>
<circle cx="125" cy="29" r="1" fill="#00FFFF" fill-opacity="0.47"/>
<circle cx="125" cy="33" r="1" fill="#00FFFF" fill-opacity="0.47"/>
<circle cx="125" cy="37" r="1" fill="#00FFFF" fill-opacity="0.47"/>
<circle cx="125" cy="41" r="1" fill="#00FFFF" fill-opacity="0.47"/>
</svg>
