<svg width="200" height="50" viewBox="0 0 200 50" fill="none" xmlns="http://www.w3.org/2000/svg">
<g clip-path="url(#clip0_18_2)">
<path d="M8.625 41.575C8.575 41.575 8.48333 41.5417 8.35 41.475C8.21667 41.4083 8.09167 41.3583 7.975 41.325C7.74167 41.2583 7.625 41.1667 7.625 41.05C7.625 40.9833 7.64167 40.8917 7.675 40.775C7.84167 40.175 8.03333 39.575 8.25 38.975C9.41667 35.725 10.675 32.5167 12.025 29.35C16.2917 19.15 18.6333 13.6667 19.05 12.9C19.1 12.8167 19.125 12.725 19.125 12.625V12.55C18.125 12.7 17.15 12.8583 16.2 13.025C14.3333 13.3083 12.5 13.7 10.7 14.2C9.88333 14.4333 9.06667 14.6833 8.25 14.95L7.025 15.325C6.49167 15.5083 6.11667 15.6 5.9 15.6C5.73333 15.6 5.64167 15.5 5.625 15.3C5.55833 15.0167 5.43333 14.7417 5.25 14.475C5.13333 14.325 5.075 14.175 5.075 14.025C5.075 13.6083 5.43333 13.2167 6.15 12.85C7.1 12.3833 8.1 12.05 9.15 11.85C10.3 11.65 11.4667 11.475 12.65 11.325L13.575 11.2C16.0583 10.8833 18.5333 10.6083 21 10.375L22.9 10.2C25.1167 10 27.0167 9.9 28.6 9.9C29.3 9.9 30.0083 9.91666 30.725 9.95C31.6083 9.96667 32.4583 10.0917 33.275 10.325C33.4583 10.375 33.6083 10.4833 33.725 10.65C33.8417 10.8 33.9 10.975 33.9 11.175C33.9 11.4917 33.7917 11.6667 33.575 11.7L33.275 11.675C32.375 11.5417 31.475 11.475 30.575 11.475C28.7917 11.475 26.3917 11.6417 23.375 11.975C23.075 12.0083 22.7917 12.0417 22.525 12.075C22.275 12.0917 22.1417 12.2 22.125 12.4C22.025 13.2 21.7583 13.9583 21.325 14.675C20.425 16.475 19.5083 18.25 18.575 20C16.175 24.6833 13.3 30.9667 9.95 38.85L8.9 41.325C8.83333 41.4917 8.74167 41.575 8.625 41.575ZM24.5418 33.55C24.3418 33.55 24.1418 33.4583 23.9418 33.275C23.8918 33.225 23.8418 33.2 23.7918 33.2C23.2585 33.0333 22.9835 32.6417 22.9668 32.025V31.7C22.9668 31.0667 23.0585 30.45 23.2418 29.85C23.7418 27.8 24.6335 25.9583 25.9168 24.325C26.0668 24.1417 26.2335 23.9833 26.4168 23.85C26.5335 23.75 26.6501 23.7 26.7668 23.7C26.8668 23.7 26.9668 23.7417 27.0668 23.825C27.3668 24.0083 27.6085 24.2417 27.7918 24.525C27.8585 24.625 27.8918 24.725 27.8918 24.825C27.8918 24.9583 27.8585 25.0667 27.7918 25.15L27.7668 25.2C27.5501 25.5833 27.3168 25.95 27.0668 26.3C26.0168 27.8333 25.2001 29.5 24.6168 31.3C24.4501 31.7167 24.3668 32.0833 24.3668 32.4C24.3668 32.5167 24.4085 32.575 24.4918 32.575C24.5418 32.575 24.6251 32.55 24.7418 32.5C25.1251 32.3 25.4835 32.0667 25.8168 31.8L25.9918 31.65C28.2751 29.7833 30.0751 28.4417 31.3918 27.625C31.4585 27.5583 31.5418 27.5167 31.6418 27.5C31.7418 27.5 31.8251 27.55 31.8918 27.65L31.9168 27.75C31.9168 27.8167 31.8918 27.8667 31.8418 27.9C31.8085 27.9333 31.7751 27.9667 31.7418 28C31.7251 28.0167 31.7001 28.0417 31.6668 28.075C30.1168 29.2083 28.6501 30.4167 27.2668 31.7L26.4918 32.375C26.1251 32.7083 25.7251 33.0083 25.2918 33.275C25.0418 33.4583 24.7918 33.55 24.5418 33.55ZM28.4918 22.975C28.4251 22.975 28.3835 22.975 28.3668 22.975C28.3501 22.975 28.3168 22.9667 28.2668 22.95C28.2168 22.9333 28.1168 22.8667 27.9668 22.75C27.8335 22.6167 27.7001 22.475 27.5668 22.325C27.4335 22.175 27.3585 22.0833 27.3418 22.05C27.3418 22 27.3335 21.975 27.3168 21.975C27.3168 21.9583 27.3168 21.9417 27.3168 21.925C27.3835 21.5417 27.5751 21.2583 27.8918 21.075C28.0585 20.9583 28.2335 20.9 28.4168 20.9C28.5168 20.9 28.6918 20.9583 28.9418 21.075C29.3085 21.3417 29.4918 21.625 29.4918 21.925C29.4918 22.1917 29.3251 22.4833 28.9918 22.8C28.9251 22.8667 28.8585 22.9167 28.7918 22.95C28.7418 22.9667 28.6418 22.975 28.4918 22.975ZM30.9381 32.35C30.8714 32.35 30.7881 32.325 30.6881 32.275C30.4714 32.2083 30.3214 32.1333 30.2381 32.05C30.1381 31.95 30.0881 31.8167 30.0881 31.65L30.1131 31.325C30.1964 30.675 30.3548 30.05 30.5881 29.45C31.1214 27.8333 31.8298 26.3 32.7131 24.85L32.7881 24.725C32.9048 24.5417 33.0298 24.3833 33.1631 24.25C33.3131 24.1 33.4464 24.025 33.5631 24.025C33.6464 24.025 33.7381 24.0583 33.8381 24.125C33.9381 24.1917 34.0131 24.25 34.0631 24.3C34.1131 24.3333 34.1548 24.3667 34.1881 24.4C34.4381 24.6167 34.5631 24.8333 34.5631 25.05C34.5631 25.3167 34.2798 25.95 33.7131 26.95C33.3298 27.65 33.1214 28.05 33.0881 28.15L33.1381 28.2L33.6131 27.575C35.0798 25.625 36.0298 24.65 36.4631 24.65C36.7964 24.65 36.9714 24.8917 36.9881 25.375C36.9881 25.525 36.9714 25.675 36.9381 25.825C36.8881 26.0417 36.8631 26.2583 36.8631 26.475C36.8631 26.7917 36.8881 26.9833 36.9381 27.05C37.0048 27.1167 37.1131 27.1667 37.2631 27.2C37.6464 27.3 38.0464 27.35 38.4631 27.35H38.6381C39.0214 27.35 39.2131 27.45 39.2131 27.65C39.2131 27.8667 38.8548 27.975 38.1381 27.975C37.7548 27.975 37.3798 27.9 37.0131 27.75C36.3464 27.4167 36.0131 26.9083 36.0131 26.225L36.0631 25.75C35.9298 25.7667 35.8048 25.8417 35.6881 25.975L35.6381 26.05C34.8381 26.9 34.1048 27.8 33.4381 28.75C32.4548 30.1333 31.7631 31.1833 31.3631 31.9L31.2131 32.125C31.0964 32.275 31.0048 32.35 30.9381 32.35ZM38.9623 37.025C38.879 37.025 38.7956 37.0083 38.7123 36.975L38.5873 36.95C38.1873 36.9 37.904 36.7417 37.7373 36.475C37.554 36.225 37.4373 35.9167 37.3873 35.55C37.3206 35.2 37.2873 34.8583 37.2873 34.525C37.2873 34.0083 37.329 33.4833 37.4123 32.95C37.7623 30.9 38.304 28.9 39.0373 26.95C39.8873 24.5667 40.879 22.2417 42.0123 19.975C42.0623 19.875 42.0873 19.8083 42.0873 19.775C42.0873 19.6917 42.0373 19.65 41.9373 19.65C41.5206 19.65 39.5456 19.7583 36.0123 19.975L34.3873 20.1C32.754 20.2167 31.5206 20.275 30.6873 20.275C30.3373 20.275 30.004 20.2417 29.6873 20.175C29.5706 20.1417 29.454 20.05 29.3373 19.9C29.204 19.75 29.1373 19.6083 29.1373 19.475C29.1373 19.3417 29.2123 19.25 29.3623 19.2C29.579 19.1167 29.7873 19.075 29.9873 19.075L30.1873 19.05C32.9706 18.7833 35.729 18.65 38.4623 18.65C39.7123 18.6 40.979 18.575 42.2623 18.575C42.6123 18.575 42.854 18.4333 42.9873 18.15C43.8873 16.5333 44.8873 14.9833 45.9873 13.5L46.0123 13.475C46.2956 13.1083 46.5206 12.925 46.6873 12.925C46.7706 12.925 46.8706 12.9833 46.9873 13.1C47.304 13.35 47.4623 13.625 47.4623 13.925C47.4623 14.1083 47.3956 14.3167 47.2623 14.55L46.0873 16.6C45.8706 16.9333 45.679 17.2583 45.5123 17.575C45.229 18.0583 45.0873 18.325 45.0873 18.375C45.0873 18.4417 45.154 18.475 45.2873 18.475H45.3623C46.1623 18.4917 47.1123 18.5 48.2123 18.5L48.6623 18.475C48.929 18.4417 49.204 18.425 49.4873 18.425L53.5623 18.5C53.8623 18.5 54.129 18.525 54.3623 18.575C54.5956 18.6083 54.7123 18.75 54.7123 19C54.7123 19.1833 54.579 19.275 54.3123 19.275L53.1123 19.25C51.829 19.25 49.8373 19.3083 47.1373 19.425C46.354 19.425 45.579 19.4583 44.8123 19.525C44.529 19.5417 44.329 19.675 44.2123 19.925C42.4456 23.2583 40.9373 26.7083 39.6873 30.275C39.1706 31.7417 38.7956 33.2417 38.5623 34.775C38.529 34.9917 38.5123 35.2083 38.5123 35.425C38.5123 35.6417 38.5373 35.85 38.5873 36.05C38.6206 36.25 38.679 36.35 38.7623 36.35C38.8123 36.35 38.8873 36.3167 38.9873 36.25C39.504 35.9167 39.9373 35.5167 40.2873 35.05C41.2373 33.85 42.0623 32.5917 42.7623 31.275L42.8623 31.1C43.6456 29.8 44.6123 28.6833 45.7623 27.75C45.8623 27.6667 45.9623 27.6 46.0623 27.55L46.2873 27.4L46.4873 27.325C46.6373 27.325 46.7373 27.3667 46.7873 27.45C46.7873 27.55 46.7373 27.625 46.6373 27.675C46.3373 27.8583 46.0706 28.0917 45.8373 28.375L45.5123 28.675C44.7123 29.5083 43.929 30.6083 43.1623 31.975C41.8623 34.2417 40.8123 35.7417 40.0123 36.475C39.6456 36.8417 39.2956 37.025 38.9623 37.025ZM45.8562 33.225C45.7562 33.225 45.6396 33.1667 45.5062 33.05L45.4312 33.025C45.2146 32.925 45.0646 32.8333 44.9812 32.75C44.8979 32.6667 44.8562 32.5417 44.8562 32.375C44.8562 31.875 44.9812 31.2583 45.2312 30.525C45.7146 28.875 46.3229 27.2667 47.0563 25.7C48.3896 22.7333 49.9563 19.9 51.7563 17.2C52.6396 15.9167 53.5396 14.6417 54.4563 13.375C54.6563 13.0917 54.8396 12.95 55.0063 12.95C55.1729 12.95 55.3646 13.1 55.5813 13.4C55.7479 13.6 55.8313 13.825 55.8313 14.075C55.8313 14.1917 55.8146 14.3083 55.7813 14.425C55.5646 15.0917 55.2729 15.7167 54.9063 16.3L51.0813 22.975C49.7313 25.2917 48.4563 27.6417 47.2563 30.025L47.0563 30.425L47.8563 29.6C48.3729 29.05 48.8979 28.5083 49.4313 27.975C50.5479 26.8417 51.7646 25.825 53.0813 24.925C53.3313 24.7417 53.5979 24.5917 53.8813 24.475C53.9979 24.425 54.1063 24.4 54.2063 24.4C54.3896 24.4 54.5729 24.4833 54.7563 24.65C55.0396 24.95 55.1813 25.2917 55.1813 25.675C55.1813 25.8083 55.1646 25.9417 55.1313 26.075C54.9313 26.725 54.6813 27.35 54.3813 27.95L53.9063 29.05C53.5396 29.8333 53.2146 30.6417 52.9313 31.475C52.9146 31.525 52.8896 31.5833 52.8563 31.65C52.8229 31.7 52.8063 31.7833 52.8063 31.9L52.8312 32.025C53.0146 31.9917 53.2063 31.8833 53.4063 31.7C53.4396 31.65 54.6146 30.725 56.9313 28.925C57.6479 28.3583 58.2396 27.95 58.7063 27.7C58.7729 27.6667 58.8479 27.625 58.9313 27.575C59.0146 27.525 59.0813 27.5 59.1313 27.5C59.2313 27.5 59.3146 27.55 59.3813 27.65L59.4313 27.775C59.4313 27.8417 59.3729 27.9083 59.2562 27.975L59.2063 28C58.1063 28.7667 57.0729 29.5917 56.1063 30.475L55.3563 31.125L54.8313 31.625C54.5479 31.9083 54.2479 32.175 53.9313 32.425L53.7063 32.6C53.3229 32.9167 53.0396 33.075 52.8563 33.075C52.7063 33.075 52.5479 33.025 52.3813 32.925C51.9479 32.6917 51.7313 32.325 51.7313 31.825C51.7313 31.625 51.7479 31.425 51.7813 31.225C52.0646 29.7417 52.6313 28.1917 53.4813 26.575L53.6813 26.175L53.7562 26.05C53.8396 25.9333 53.8813 25.7833 53.8813 25.6C53.6646 25.6333 53.4729 25.7167 53.3063 25.85L53.2563 25.875C52.5396 26.3417 51.8646 26.8583 51.2313 27.425C49.5313 28.925 47.9979 30.5833 46.6313 32.4C46.2146 32.95 45.9562 33.225 45.8562 33.225ZM69.0855 43.8C69.0355 43.8 68.8939 43.7417 68.6605 43.625L68.5105 43.575C68.2439 43.525 68.1105 43.4167 68.1105 43.25C68.1105 43.1667 68.1272 43.0583 68.1605 42.925C68.6605 41.225 69.2522 39.5583 69.9355 37.925C71.2522 34.7417 71.9105 33.1167 71.9105 33.05C71.9105 32.95 71.8522 32.8833 71.7355 32.85C71.2355 32.6833 70.8105 32.425 70.4605 32.075L70.2605 31.9C69.8272 31.5167 69.6105 31.0833 69.6105 30.6C69.6105 30.3 69.7022 29.9917 69.8855 29.675C70.2189 29.125 70.6355 28.6667 71.1355 28.3C72.2189 27.4 73.3689 26.6167 74.5855 25.95C74.9189 25.7667 75.1689 25.4917 75.3355 25.125C76.9855 21.0917 78.8272 17.1333 80.8605 13.25C80.8939 13.2 80.9272 13.1083 80.9605 12.975L80.5105 13.1C80.2272 13.1833 79.9605 13.275 79.7105 13.375C75.7105 14.6583 72.0355 16.5583 68.6855 19.075C68.6355 19.0917 68.5855 19.125 68.5355 19.175C68.3355 19.3417 68.1855 19.425 68.0855 19.425C68.0355 19.425 67.9855 19.3917 67.9355 19.325C67.8855 19.2583 67.8189 19.15 67.7355 19C67.6522 18.8333 67.5355 18.7083 67.3855 18.625C67.2189 18.475 67.1355 18.325 67.1355 18.175C67.1355 18.0583 67.1772 17.925 67.2605 17.775C67.3939 17.5417 67.5605 17.3333 67.7605 17.15C68.6272 16.3333 69.5689 15.625 70.5855 15.025C73.2022 13.5083 75.9522 12.3 78.8355 11.4C80.4022 10.85 82.0189 10.4583 83.6855 10.225C84.3855 10.125 85.0855 10.075 85.7855 10.075C89.5355 10.075 91.8605 11.5417 92.7605 14.475C92.9939 15.275 93.1105 16.0667 93.1105 16.85C93.1105 18.1667 92.8105 19.45 92.2105 20.7C91.4939 22.2167 90.5772 23.5833 89.4605 24.8C86.3939 28.2333 82.6939 30.725 78.3605 32.275C76.9939 32.8083 75.5772 33.1 74.1105 33.15C73.8605 33.15 73.6855 33.2917 73.5855 33.575C71.7689 37.5083 70.3439 40.8167 69.3105 43.5C69.2439 43.7 69.1689 43.8 69.0855 43.8ZM74.4355 32.175L74.6105 32.15C76.2772 31.85 77.8605 31.3333 79.3605 30.6C81.6939 29.4833 83.8189 28.0667 85.7355 26.35C87.6522 24.6333 89.2855 22.6833 90.6355 20.5C91.3355 19.3333 91.8272 18.0833 92.1105 16.75C92.1605 16.5333 92.1855 16.325 92.1855 16.125C92.1855 15.625 92.0272 15.1417 91.7105 14.675C90.5439 13.0083 88.6605 12.175 86.0605 12.175C85.4605 12.175 84.8689 12.2167 84.2855 12.3C84.1355 12.3167 83.9689 12.3333 83.7855 12.35C83.6022 12.3667 83.5022 12.475 83.4855 12.675C83.3855 13.675 82.5355 15.6417 80.9355 18.575C79.3355 21.6083 78.3939 23.375 78.1105 23.875C78.0439 23.9583 78.0105 24.075 78.0105 24.225V24.3C78.8105 24.0167 79.5939 23.7833 80.3605 23.6C80.4605 23.55 80.5772 23.525 80.7105 23.525C80.8105 23.525 80.8939 23.5583 80.9605 23.625C81.0272 23.675 81.0689 23.7417 81.0855 23.825C81.0855 23.9417 81.0105 24.0167 80.8605 24.05L80.6355 24.125C79.7022 24.3917 78.8105 24.7083 77.9605 25.075C77.5939 25.2083 77.3272 25.4583 77.1605 25.825C76.2605 27.8083 75.3439 29.775 74.4105 31.725L74.3855 31.775C74.3355 31.8583 74.3105 31.9417 74.3105 32.025L74.3355 32.15L74.4355 32.175ZM72.1355 32.225C72.2189 32.225 72.2855 32.1917 72.3355 32.125C72.3855 32.0417 73.1022 30.3583 74.4855 27.075C74.4522 27.075 74.4105 27.0833 74.3605 27.1C74.3272 27.1 74.3022 27.1083 74.2855 27.125C73.1855 27.7917 72.1855 28.5917 71.2855 29.525C70.9689 29.8417 70.7439 30.225 70.6105 30.675C70.5772 30.7917 70.5605 30.9083 70.5605 31.025C70.5605 31.4583 70.7939 31.7833 71.2605 32C71.6439 32.15 71.9355 32.225 72.1355 32.225ZM99.6082 38.875C99.5749 38.875 99.5332 38.8583 99.4832 38.825C99.3499 38.7417 99.2165 38.675 99.0832 38.625C98.9665 38.575 98.9082 38.5 98.9082 38.4L98.9332 38.3C98.9999 38 99.0832 37.7083 99.1832 37.425C99.5499 36.3417 99.9582 35.2833 100.408 34.25C101.158 32.4 101.95 30.5833 102.783 28.8L104.608 24.675C105.342 23.025 106.25 21.2333 107.333 19.3C107.333 19.2833 107.333 19.275 107.333 19.275C107.35 19.2583 107.358 19.2417 107.358 19.225C107.375 19.2083 107.383 19.1667 107.383 19.1L107.258 19.075C107.125 19.075 107.025 19.1417 106.958 19.275L105.833 20.75C103.967 23.2 102.075 25.625 100.158 28.025C98.8415 29.6917 97.8999 30.7333 97.3332 31.15C97.1832 31.2667 97.0332 31.325 96.8832 31.325C96.7832 31.325 96.6665 31.2917 96.5332 31.225C96.3999 31.1417 96.2415 31.0667 96.0582 31C95.7249 30.8333 95.5582 30.4667 95.5582 29.9C95.5582 29.8 95.5665 29.7 95.5832 29.6C95.5999 29.5 95.6165 29.3917 95.6332 29.275C95.6499 29.1417 95.6665 29 95.6832 28.85C95.5499 28.95 95.4499 29.0583 95.3832 29.175C94.9665 29.7083 94.5249 30.2083 94.0582 30.675C93.7415 30.9917 93.4749 31.15 93.2582 31.15C93.1249 31.15 92.9582 31.0917 92.7582 30.975L92.4582 30.875C91.9249 30.7083 91.6582 30.2333 91.6582 29.45C91.6582 29.2 91.6832 28.95 91.7332 28.7C91.9332 27.75 92.3499 26.9083 92.9832 26.175C93.2665 25.875 93.5915 25.6333 93.9582 25.45C94.1749 25.3333 94.3915 25.275 94.6082 25.275C94.8415 25.275 95.0832 25.3417 95.3332 25.475C95.6832 25.7083 96.0499 25.925 96.4332 26.125C96.5165 26.1917 96.5832 26.225 96.6332 26.225C96.6832 26.225 96.7332 26.1667 96.7832 26.05C96.9999 25.6667 97.2582 25.3083 97.5582 24.975C97.5749 24.9417 97.5915 24.9167 97.6082 24.9C97.6415 24.8667 97.6665 24.8417 97.6832 24.825C97.7999 24.6917 97.8999 24.625 97.9832 24.625C98.0665 24.625 98.1665 24.6917 98.2832 24.825L98.6832 25.2C98.8165 25.3167 98.8832 25.45 98.8832 25.6C98.8832 25.9 98.5999 26.6167 98.0332 27.75C97.6999 28.4333 97.3915 29.1167 97.1082 29.8L97.0832 29.9C97.0332 30 96.9999 30.1083 96.9832 30.225C97.1999 30.0917 97.3915 29.9417 97.5582 29.775C98.3749 29.0083 99.1499 28.2083 99.8832 27.375C101.217 25.8917 102.483 24.3667 103.683 22.8C104.533 21.7 105.383 20.5833 106.233 19.45C106.25 19.4333 106.258 19.4167 106.258 19.4C106.275 19.3833 106.292 19.3667 106.308 19.35C106.325 19.3333 106.342 19.3167 106.358 19.3C106.375 19.2667 106.383 19.2333 106.383 19.2C106.367 19.15 106.317 19.125 106.233 19.125C105.2 19.1583 104.142 19.2167 103.058 19.3C101.558 19.3833 100.067 19.4917 98.5832 19.625C97.2832 19.7583 95.9749 19.85 94.6582 19.9C94.0082 19.9 93.3499 19.875 92.6832 19.825C92.6165 19.7917 92.5332 19.775 92.4332 19.775C92.0999 19.725 91.8749 19.4917 91.7582 19.075L91.7332 19C91.7332 18.9333 91.7749 18.8833 91.8582 18.85C91.9249 18.8 91.9915 18.7667 92.0582 18.75C92.1082 18.7333 92.1499 18.7167 92.1832 18.7C93.6499 18.3833 95.6082 18.175 98.0582 18.075C98.2915 18.0583 98.5165 18.05 98.7332 18.05C98.9665 18.05 99.1915 18.0417 99.4082 18.025C100.742 18.025 102.083 18 103.433 17.95L104.858 17.925C105.808 17.925 106.433 17.9083 106.733 17.875H107.133C107.333 17.875 107.492 17.8 107.608 17.65C107.725 17.4833 107.842 17.3083 107.958 17.125C108.408 16.4917 109.075 15.6167 109.958 14.5L111.358 12.675C111.658 12.2583 111.833 12.05 111.883 12.05C111.95 12.05 112.025 12.1083 112.108 12.225C112.242 12.425 112.35 12.5917 112.433 12.725C112.533 12.8417 112.583 12.975 112.583 13.125C112.583 13.3583 112.433 13.8083 112.133 14.475C112.033 14.775 111.692 15.4917 111.108 16.625C110.975 16.8583 110.85 17.0917 110.733 17.325C110.617 17.5583 110.558 17.7083 110.558 17.775C110.558 17.825 110.592 17.85 110.658 17.85H110.908C112.108 17.85 113.267 17.8583 114.383 17.875C115.717 17.8917 117.042 17.9583 118.358 18.075H118.383C118.483 18.0917 118.55 18.1167 118.583 18.15C118.633 18.1833 118.667 18.2667 118.683 18.4C118.717 18.5167 118.733 18.6167 118.733 18.7C118.733 18.7833 118.708 18.8417 118.658 18.875C118.608 18.8917 118.5 18.9 118.333 18.9C117.633 18.8667 116.967 18.85 116.333 18.85C114.6 18.85 113.017 18.875 111.583 18.925C111.117 18.9583 110.658 18.975 110.208 18.975C110.008 18.975 109.875 19.0583 109.808 19.225C108.708 21.3917 107.525 23.5417 106.258 25.675C104.808 28.1917 103.467 30.7583 102.233 33.375C101.367 35.0917 100.558 36.8333 99.8082 38.6L99.7832 38.7C99.6999 38.8167 99.6415 38.875 99.6082 38.875ZM93.3832 30.3L93.4082 30.275C94.0582 29.7917 94.9582 28.7917 96.1082 27.275C96.1582 27.2417 96.1832 27.2 96.1832 27.15C96.1832 27.0667 96.1332 27.025 96.0332 27.025C95.9999 27.025 95.9499 27.0417 95.8832 27.075C95.8332 27.1083 95.7582 27.15 95.6582 27.2C94.6415 27.8833 93.8832 28.8 93.3832 29.95C93.3165 30.05 93.2832 30.1667 93.2832 30.3H93.3832ZM110.332 32.525C110.115 32.525 109.915 32.4583 109.732 32.325C109.632 32.2417 109.532 32.175 109.432 32.125C108.815 31.8583 108.449 31.4 108.332 30.75C108.265 30.4167 108.232 30.2 108.232 30.1C108.232 29.15 108.424 28.3167 108.807 27.6C109.457 26.25 110.382 25.125 111.582 24.225C112.015 23.8917 112.49 23.6667 113.007 23.55L113.307 23.525C113.74 23.525 114.099 23.7083 114.382 24.075C114.665 24.3583 114.807 24.675 114.807 25.025C114.807 25.4417 114.59 25.8667 114.157 26.3C113.557 26.9333 112.84 27.4167 112.007 27.75C111.674 27.9 111.315 27.975 110.932 27.975C110.815 27.975 110.699 28.025 110.582 28.125C110.032 29.1583 109.757 30.0833 109.757 30.9L109.782 31.375C109.815 31.5583 109.907 31.65 110.057 31.65L110.232 31.625C110.815 31.4417 111.624 30.9083 112.657 30.025C113.74 29.1417 114.665 28.4417 115.432 27.925C115.649 27.7583 115.882 27.6333 116.132 27.55C116.215 27.5167 116.299 27.5 116.382 27.5H116.482C116.582 27.5 116.649 27.5583 116.682 27.675C116.682 27.7083 116.674 27.7333 116.657 27.75C116.64 27.7667 116.624 27.7833 116.607 27.8C116.59 27.8 116.574 27.8083 116.557 27.825C115.674 28.2917 114.874 28.875 114.157 29.575L113.357 30.325C112.807 30.8583 112.249 31.3583 111.682 31.825C111.132 32.2917 110.682 32.525 110.332 32.525ZM111.182 27.275C112.265 26.9917 113.124 26.3917 113.757 25.475C113.774 25.4583 113.79 25.4333 113.807 25.4C113.84 25.35 113.874 25.2917 113.907 25.225C113.94 25.1583 113.957 25.0917 113.957 25.025C113.957 24.9583 113.932 24.9 113.882 24.85C113.832 24.8 113.782 24.775 113.732 24.775C113.665 24.775 113.599 24.7917 113.532 24.825C113.465 24.8583 113.407 24.8917 113.357 24.925C113.307 24.9583 113.274 24.9833 113.257 25C112.407 25.6 111.715 26.3583 111.182 27.275ZM116.154 37.2C116.054 37.2 115.945 37.1667 115.829 37.1C115.712 37.0333 115.579 36.9917 115.429 36.975C115.062 36.8917 114.829 36.6583 114.729 36.275C114.629 35.9083 114.579 35.525 114.579 35.125V34.9C114.712 32.95 115.087 31.0417 115.704 29.175C116.77 25.8083 118.129 22.575 119.779 19.475C120.462 18.2083 121.17 16.9583 121.904 15.725L123.229 13.425C123.329 13.2917 123.42 13.225 123.504 13.225C123.587 13.225 123.687 13.275 123.804 13.375C124.187 13.6583 124.379 13.9917 124.379 14.375C124.379 14.5417 124.345 14.7333 124.279 14.95C124.129 15.4167 123.937 15.8667 123.704 16.3L120.404 22.9C118.987 25.6833 117.795 28.5417 116.829 31.475C116.429 32.7417 116.145 34.025 115.979 35.325L115.954 35.725C115.954 35.8917 115.979 36.0833 116.029 36.3C116.545 35.85 116.995 35.4 117.379 34.95C118.445 33.65 119.487 32.3333 120.504 31C121.004 30.3167 121.545 29.675 122.129 29.075C122.795 28.4083 123.57 27.9 124.454 27.55C124.47 27.55 124.495 27.5417 124.529 27.525C124.579 27.5083 124.629 27.5 124.679 27.5C124.745 27.5 124.787 27.5 124.804 27.5C124.937 27.5 125.012 27.5667 125.029 27.7C125.029 27.7667 124.979 27.825 124.879 27.875C124.245 28.175 123.754 28.4917 123.404 28.825C122.987 29.225 122.595 29.65 122.229 30.1C121.479 30.9667 120.762 31.8667 120.079 32.8L119.154 34.05L118.729 34.6C118.362 35.1167 117.979 35.625 117.579 36.125C117.312 36.475 116.995 36.7833 116.629 37.05C116.479 37.15 116.32 37.2 116.154 37.2Z" fill="white"/>
</g>
<defs>
<clipPath id="clip0_18_2">
<rect width="200" height="50" fill="white"/>
</clipPath>
</defs>
</svg>
