<svg width="349" height="349" viewBox="0 0 349 349" fill="none" xmlns="http://www.w3.org/2000/svg">
<g clip-path="url(#clip0_203_258)">
<rect x="138" y="154" width="68.2139" height="128.131" rx="13.7769" fill="#FED8D9" stroke="#080808" stroke-width="4" stroke-linecap="round"/>
<path d="M139.896 236.634V195.678H208.5C203.333 216.68 172.523 237.768 139.896 236.634Z" fill="#69514A"/>
<path d="M132.5 150.5C132.5 162.745 123.23 172.5 112 172.5C100.77 172.5 91.5 162.745 91.5 150.5C91.5 138.255 100.77 128.5 112 128.5C123.23 128.5 132.5 138.255 132.5 150.5Z" fill="#FED8D9" stroke="black" stroke-width="3"/>
<path d="M214.5 150.5C214.5 162.712 223.963 172.5 235.5 172.5C247.037 172.5 256.5 162.712 256.5 150.5C256.5 138.288 247.037 128.5 235.5 128.5C223.963 128.5 214.5 138.288 214.5 150.5Z" fill="#FED8D9" stroke="black" stroke-width="3"/>
<g clip-path="url(#clip1_203_258)">
<path d="M240.5 146.129C240.5 166.567 234.542 182.212 223.397 192.76C212.238 203.32 195.666 208.975 174.03 208.975C152.394 208.975 135.548 203.32 124.121 192.749C112.712 182.194 106.5 166.548 106.5 146.129C106.5 125.677 112.737 104.326 124.323 88.1269C135.89 71.9532 152.729 60.9753 174.03 60.9753C195.326 60.9753 211.896 71.9474 223.198 88.1138C234.521 104.31 240.5 125.663 240.5 146.129Z" fill="#FED8D9" stroke="black" stroke-width="3" stroke-linecap="round"/>
<path d="M172.842 145.475C170.975 153.863 170 158.246 170 166.973C172.501 168.527 174.892 168.916 179 168.872" stroke="black" stroke-width="3" stroke-linecap="round" stroke-linejoin="round"/>
<path d="M149.768 151.547C152.215 151.547 154.315 150.221 155.753 148.304C157.191 146.388 158.035 143.809 158.035 141.024C158.035 138.239 157.191 135.66 155.753 133.743C154.315 131.826 152.215 130.5 149.768 130.5C147.321 130.5 145.22 131.826 143.782 133.743C142.345 135.66 141.5 138.239 141.5 141.024C141.5 143.809 142.345 146.388 143.782 148.304C145.22 150.221 147.321 151.547 149.768 151.547Z" fill="black" stroke="black" stroke-width="3" stroke-linecap="round"/>
<circle cx="152.616" cy="138.809" r="3.5" fill="#FED8D9" stroke="black" stroke-width="3"/>
<path d="M215.768 151.547C218.215 151.547 220.315 150.221 221.753 148.304C223.191 146.388 224.035 143.809 224.035 141.024C224.035 138.239 223.191 135.66 221.753 133.743C220.315 131.826 218.215 130.5 215.768 130.5C213.321 130.5 211.22 131.826 209.782 133.743C208.345 135.66 207.5 138.239 207.5 141.024C207.5 143.809 208.345 146.388 209.782 148.304C211.22 150.221 213.321 151.547 215.768 151.547Z" fill="black" stroke="black" stroke-width="3" stroke-linecap="round"/>
<circle cx="218.616" cy="138.809" r="2" fill="#FED8D9"/>
<path d="M160 180C164.5 184.528 176.2 190.867 187 180" stroke="black" stroke-width="3" stroke-linecap="round" stroke-linejoin="round"/>
<g filter="url(#filter0_f_203_258)">
<ellipse cx="136.5" cy="168.5" rx="9.5" ry="5.5" fill="#FB8D6C"/>
</g>
<g filter="url(#filter1_f_203_258)">
<ellipse cx="215.5" cy="168.5" rx="9.5" ry="5.5" fill="#FB8D6C"/>
</g>
</g>
<path d="M93.5001 88.7973C91.8598 66.724 98.0001 55.2973 116.5 50.7973C116.5 50.7973 171.5 -3.70261 220 32.2974C268.5 68.2973 238.5 129.5 238.5 129.5C227 114 221.966 110.893 223 91.2973C181.157 103.871 163.716 100.147 140.5 74.2973C137.481 90.9869 134 97 122 104C124.147 116.313 111.5 127 108 130.5C96.8362 118.258 94.7231 109.302 93.5001 88.7973Z" fill="black"/>
<g clip-path="url(#clip2_203_258)">
<mask id="mask0_203_258" style="mask-type:alpha" maskUnits="userSpaceOnUse" x="39" y="205" width="266" height="126">
<path d="M203.82 205.873C227.816 208.488 246.242 215.675 246.242 234.281L246.235 233.723C280.517 247.823 304.576 280.866 304.576 319.381V331H39.4242V319.381C39.4242 280.866 63.4832 247.822 97.7658 233.722C98.13 215.53 116.427 208.462 140.182 205.873L140.182 230.309C140.182 247.42 154.427 261.291 172 261.291C189.573 261.291 203.818 247.42 203.818 230.309L203.82 205.873Z" fill="white"/>
</mask>
<g mask="url(#mask0_203_258)">
<path d="M203.82 205.873C227.816 208.488 246.242 215.675 246.242 234.281L246.235 233.723C280.517 247.823 304.576 280.866 304.576 319.381V331H39.4242V319.381C39.4242 280.866 63.4832 247.822 97.7658 233.722C98.13 215.53 116.427 208.462 140.182 205.873L140.182 230.309C140.182 247.42 154.427 261.291 172 261.291C189.573 261.291 203.818 247.42 203.818 230.309L203.82 205.873Z" fill="#972FFF"/>
<path d="M139.182 206.992L139.182 230.309C139.182 247.997 153.9 262.291 172 262.291C190.1 262.291 204.818 247.997 204.818 230.309L204.82 206.992C216.313 208.323 226.334 210.737 233.525 214.944C240.696 219.138 245.019 225.085 245.234 233.61L245.236 233.735L245.242 234.281L245.242 234.293L246.003 234.289L245.855 234.648C279.787 248.604 303.576 281.298 303.576 319.381V330H40.4242V319.381C40.4242 281.298 64.2137 248.603 98.1461 234.647L98.7524 234.398L98.7656 233.742C98.9393 225.064 103.353 219.039 110.701 214.813C117.876 210.687 127.808 208.309 139.182 206.992Z" stroke="black" stroke-opacity="0.8" stroke-width="2"/>
<path d="M123.946 265.779C126.273 267.062 128.706 268.257 131.227 269.357L131.227 330H123.947L123.946 265.779ZM212.774 269.356C215.295 268.256 217.728 267.061 220.055 265.779L220.053 316.155C220.053 318.073 218.448 319.673 216.413 319.673C214.377 319.673 212.773 318.073 212.773 316.155L212.774 269.356Z" fill="#2E2E2E" stroke="black" stroke-width="2"/>
<path fill-rule="evenodd" clip-rule="evenodd" d="M226.41 205.426C246.363 209.101 260.163 216.423 260.163 230.706C260.163 256.153 216.363 276.782 172 276.782C127.637 276.782 83.837 256.153 83.837 230.706C83.837 216.423 97.6365 209.101 117.589 205.426C105.546 209.751 97.7575 217.021 97.7575 229.117C97.7575 255.442 134.642 276.782 172 276.782C209.358 276.782 246.242 255.442 246.242 229.117C246.242 217.272 238.773 210.054 227.153 205.699L226.41 205.426Z" fill="black" fill-opacity="0.16"/>
<path d="M120.342 263.671C125.098 266.624 130.391 269.195 136.044 271.303C127.174 269.052 118.918 266.026 111.733 262.394C95.3145 254.095 84.837 242.83 84.837 230.706C84.837 223.957 88.0685 218.84 93.7964 214.913C97.7331 212.214 102.834 210.092 108.828 208.435C106.358 209.949 104.197 211.69 102.411 213.692C98.7897 217.751 96.7575 222.832 96.7575 229.117C96.7575 242.775 106.312 254.959 120.342 263.671ZM235.172 208.435C241.166 210.092 246.267 212.214 250.203 214.913C255.931 218.84 259.163 223.957 259.163 230.706C259.163 242.83 248.685 254.095 232.266 262.394C225.082 266.026 216.826 269.052 207.956 271.303C213.608 269.195 218.901 266.624 223.658 263.671C237.688 254.959 247.242 242.775 247.242 229.117C247.242 222.963 245.294 217.962 241.811 213.944C239.983 211.835 237.745 210.012 235.172 208.435Z" stroke="black" stroke-opacity="0.8" stroke-width="2"/>
</g>
</g>
<path d="M206.746 112.556C216.169 112.556 224.39 118.323 228.761 126.882C228.982 126.814 229.216 126.778 229.458 126.778H237.908C239.367 126.778 240.549 128.104 240.549 129.741C240.549 131.377 239.367 132.704 237.908 132.704L231.003 132.704C231.715 135.328 232.099 138.114 232.099 141C232.099 156.71 220.748 169.445 206.746 169.445C192.745 169.445 181.394 156.71 181.394 141C181.394 139.319 181.524 137.672 181.774 136.071C181.692 130.879 178.137 126.778 173.855 126.778C169.906 126.778 166.577 130.264 166.015 134.877C166.402 136.85 166.606 138.898 166.606 141C166.606 156.71 155.255 169.445 141.254 169.445C127.252 169.445 115.901 156.71 115.901 141C115.901 138.114 116.284 135.328 116.997 132.704L110.092 132.704C108.633 132.704 107.451 131.377 107.451 129.741C107.451 128.104 108.633 126.778 110.092 126.778H118.542C118.784 126.778 119.018 126.814 119.24 126.882C123.61 118.323 131.831 112.556 141.254 112.556C151.133 112.556 159.692 118.896 163.876 128.147C166.07 124.454 169.721 122.037 173.855 122.037C178.093 122.037 181.825 124.579 183.998 128.431C188.133 119.026 196.766 112.556 206.746 112.556ZM141.254 117.296C129.586 117.296 120.127 127.909 120.127 141C120.127 154.091 129.586 164.704 141.254 164.704C152.921 164.704 162.38 154.091 162.38 141C162.38 127.909 152.921 117.296 141.254 117.296ZM206.746 117.296C195.078 117.296 185.62 127.909 185.62 141C185.62 154.091 195.078 164.704 206.746 164.704C218.414 164.704 227.873 154.091 227.873 141C227.873 127.909 218.414 117.296 206.746 117.296Z" fill="black"/>
<path d="M206.746 112.556C216.169 112.556 224.39 118.323 228.761 126.882C228.982 126.814 229.216 126.778 229.458 126.778H237.908C239.367 126.778 240.549 128.104 240.549 129.741C240.549 131.377 239.367 132.704 237.908 132.704L231.003 132.704C231.715 135.328 232.099 138.114 232.099 141C232.099 156.71 220.748 169.445 206.746 169.445C192.745 169.445 181.394 156.71 181.394 141C181.394 139.319 181.524 137.672 181.774 136.071C181.692 130.879 178.137 126.778 173.855 126.778C169.906 126.778 166.577 130.264 166.015 134.877C166.402 136.85 166.606 138.898 166.606 141C166.606 156.71 155.255 169.445 141.254 169.445C127.252 169.445 115.901 156.71 115.901 141C115.901 138.114 116.284 135.328 116.997 132.704L110.092 132.704C108.633 132.704 107.451 131.377 107.451 129.741C107.451 128.104 108.633 126.778 110.092 126.778H118.542C118.784 126.778 119.018 126.814 119.24 126.882C123.61 118.323 131.831 112.556 141.254 112.556C151.133 112.556 159.692 118.896 163.876 128.147C166.07 124.454 169.721 122.037 173.855 122.037C178.093 122.037 181.825 124.579 183.998 128.431C188.133 119.026 196.766 112.556 206.746 112.556ZM141.254 117.296C129.586 117.296 120.127 127.909 120.127 141C120.127 154.091 129.586 164.704 141.254 164.704C152.921 164.704 162.38 154.091 162.38 141C162.38 127.909 152.921 117.296 141.254 117.296ZM206.746 117.296C195.078 117.296 185.62 127.909 185.62 141C185.62 154.091 195.078 164.704 206.746 164.704C218.414 164.704 227.873 154.091 227.873 141C227.873 127.909 218.414 117.296 206.746 117.296Z" fill="black"/>
</g>
<defs>
<filter id="filter0_f_203_258" x="115" y="151" width="43" height="35" filterUnits="userSpaceOnUse" color-interpolation-filters="sRGB">
<feFlood flood-opacity="0" result="BackgroundImageFix"/>
<feBlend mode="normal" in="SourceGraphic" in2="BackgroundImageFix" result="shape"/>
<feGaussianBlur stdDeviation="6" result="effect1_foregroundBlur_203_258"/>
</filter>
<filter id="filter1_f_203_258" x="194" y="151" width="43" height="35" filterUnits="userSpaceOnUse" color-interpolation-filters="sRGB">
<feFlood flood-opacity="0" result="BackgroundImageFix"/>
<feBlend mode="normal" in="SourceGraphic" in2="BackgroundImageFix" result="shape"/>
<feGaussianBlur stdDeviation="6" result="effect1_foregroundBlur_203_258"/>
</filter>
<clipPath id="clip0_203_258">
<rect width="349" height="349" fill="white"/>
</clipPath>
<clipPath id="clip1_203_258">
<rect width="137" height="190" fill="white" transform="translate(105 20.7974)"/>
</clipPath>
<clipPath id="clip2_203_258">
<rect width="350" height="142" fill="white" transform="translate(-3 189)"/>
</clipPath>
</defs>
</svg>
