<svg width="200" height="50" viewBox="0 0 200 50" fill="none" xmlns="http://www.w3.org/2000/svg">
<g clip-path="url(#clip0_18_2)">
<path d="M20.7441 36.9473L21.582 37.582C21.362 38.056 21.1504 38.4707 20.9473 38.8262C20.7441 39.1816 20.4987 39.6133 20.2109 40.1211C19.9232 40.6289 19.7031 41.0098 19.5508 41.2637C18.2812 43.4811 17.0879 44.5898 15.9707 44.5898C15.4967 44.5898 15.0905 44.4036 14.752 44.0312C14.4134 43.6589 14.2441 43.151 14.2441 42.5078C14.2441 41.5938 14.5658 40.3411 15.209 38.75C15.8691 37.1589 16.8763 35.2038 18.2305 32.8848C19.6016 30.5488 21.3197 27.9082 23.3848 24.9629C25.4499 22.0176 27.7773 18.9115 30.3672 15.6445C28.8776 15.4245 27.1087 15.3145 25.0605 15.3145C22.7077 15.3145 20.084 15.5768 17.1895 16.1016C14.3118 16.6263 11.7982 17.2357 9.64844 17.9297C7.51562 18.6068 6.44922 19.1061 6.44922 19.4277C6.44922 19.5462 6.49154 19.6309 6.57617 19.6816C6.66081 19.7155 6.79622 19.7493 6.98242 19.7832C7.18555 19.8001 7.43945 19.8255 7.74414 19.8594C9.72461 20.1302 10.7148 20.4349 10.7148 20.7734C10.7148 20.9427 10.2832 21.0273 9.41992 21.0273C8.55664 21.0104 7.51562 21.002 6.29688 21.002C5.33203 21.002 4.62956 20.9681 4.18945 20.9004C3.76628 20.8158 3.47852 20.6719 3.32617 20.4688C3.19076 20.2487 3.12305 19.9186 3.12305 19.4785C3.12305 19.1908 3.20768 18.5645 3.37695 17.5996C3.69857 15.8053 4.18945 14.3665 4.84961 13.2832C5.52669 12.1999 6.55078 11.3197 7.92188 10.6426C9.3099 9.94857 11.2142 9.39844 13.6348 8.99219C17.6973 8.29818 21.0573 7.95117 23.7148 7.95117C25.6784 7.95117 27.2272 8.03581 28.3613 8.20508C29.4954 8.35742 30.3249 8.58594 30.8496 8.89062C31.3913 9.19531 31.7298 9.5 31.8652 9.80469C32.0176 10.0924 32.2122 10.6003 32.4492 11.3281L33.2363 13.6641C33.2871 13.8164 33.3294 13.9434 33.3633 14.0449C33.3971 14.1296 33.4225 14.2227 33.4395 14.3242C33.4733 14.4258 33.4902 14.5189 33.4902 14.6035C33.4902 15.2637 33.3379 15.8561 33.0332 16.3809C32.7454 16.9056 32.2038 17.6927 31.4082 18.7422C30.6296 19.7917 30.054 20.6126 29.6816 21.2051C25.3145 28.2975 22.3353 33.5449 20.7441 36.9473ZM39.3047 22.6523C38.8815 22.6523 38.4753 22.4915 38.0859 22.1699C37.7135 21.8483 37.5273 21.4421 37.5273 20.9512C37.5273 20.2064 37.8828 19.377 38.5938 18.4629C39.3047 17.5488 40.041 17.0918 40.8027 17.0918C41.3105 17.0918 41.7337 17.2526 42.0723 17.5742C42.4108 17.8789 42.5801 18.3275 42.5801 18.9199C42.5801 19.6478 42.2331 20.4518 41.5391 21.332C40.8451 22.2122 40.1003 22.6523 39.3047 22.6523ZM41.0312 34.002V35.8555C39.3893 37.9714 37.8574 39.571 36.4355 40.6543C35.0137 41.7207 33.8034 42.2539 32.8047 42.2539C31.4167 42.2539 30.3841 41.526 29.707 40.0703C29.0299 38.6146 28.6914 37.0234 28.6914 35.2969C28.6914 34.6367 28.7591 34.0104 28.8945 33.418C29.0299 32.8086 29.1908 32.3092 29.377 31.9199C29.5632 31.5306 29.9102 30.9212 30.418 30.0918C32.8216 26.3509 35.0221 24.4805 37.0195 24.4805C38.0521 24.4805 38.5684 24.8783 38.5684 25.6738C38.5684 26.2155 38.2298 27.0618 37.5527 28.2129C36.8926 29.3639 36.3001 30.1849 35.7754 30.6758C34.3027 32.0977 33.3379 33.0879 32.8809 33.6465C32.4408 34.2051 32.2207 34.8398 32.2207 35.5508C32.2207 36.1602 32.4492 36.668 32.9062 37.0742C33.3633 37.4805 33.9557 37.6836 34.6836 37.6836C35.4792 37.6836 36.3509 37.3958 37.2988 36.8203C38.2637 36.2279 39.5078 35.2884 41.0312 34.002ZM40.5742 35.957V34.3066C41.4883 33.2233 42.1823 32.3008 42.6562 31.5391C42.1146 31.3529 41.7168 31.1243 41.4629 30.8535C41.2259 30.5827 41.1074 30.1764 41.1074 29.6348C41.1074 29.0254 41.3613 28.2552 41.8691 27.3242C42.377 26.3932 43.0033 25.5215 43.748 24.709C44.4928 23.8965 45.1699 23.3717 45.7793 23.1348C46.0163 23.0163 46.2448 22.957 46.4648 22.957C46.8034 22.957 46.9727 23.1178 46.9727 23.4395C46.9727 23.7272 46.7103 24.3112 46.1855 25.1914C49.6725 24.6497 51.873 24.3789 52.7871 24.3789C53.1426 24.3789 53.388 24.4128 53.5234 24.4805C53.8112 24.6328 54.0482 24.9883 54.2344 25.5469C54.4206 26.1055 54.5137 26.6641 54.5137 27.2227C54.5137 27.5781 54.3529 27.9674 54.0312 28.3906C53.7266 28.7969 53.1934 29.3978 52.4316 30.1934C51.5345 31.1582 50.7812 32.2077 50.1719 33.3418C49.5625 34.4759 49.2578 35.3307 49.2578 35.9062C49.2578 36.7018 49.7487 37.0996 50.7305 37.0996C51.763 37.0996 53.5573 36.0501 56.1133 33.9512V35.6523C54.7083 37.125 53.5488 38.2845 52.6348 39.1309C51.7207 39.9772 50.8743 40.6543 50.0957 41.1621C49.3171 41.653 48.623 41.8984 48.0137 41.8984C47.3027 41.8984 46.7103 41.5768 46.2363 40.9336C45.7624 40.2734 45.5254 39.3255 45.5254 38.0898C45.5254 37.362 45.7116 36.5326 46.084 35.6016C46.4564 34.6706 46.998 33.6634 47.709 32.5801C48.4368 31.4798 49.2493 30.388 50.1465 29.3047C49.6725 29.4062 49.1393 29.5163 48.5469 29.6348C47.9544 29.7363 47.3281 29.8464 46.668 29.9648C46.0078 30.0833 45.5 30.1764 45.1445 30.2441C44.0951 32.3431 42.5716 34.2474 40.5742 35.957ZM64.9238 20.8242H66.0156C66.9128 19.2161 67.7253 18.082 68.4531 17.4219C69.181 16.7448 70.0104 16.4062 70.9414 16.4062C71.8724 16.4062 72.3379 16.6178 72.3379 17.041C72.3379 17.2441 71.974 17.7943 71.2461 18.6914C70.5182 19.5885 69.9681 20.3418 69.5957 20.9512C70.1712 21.0189 70.679 21.0781 71.1191 21.1289C71.5762 21.1797 71.9316 21.222 72.1855 21.2559C71.2207 23.0501 70.0104 24.8867 68.5547 26.7656C68.0807 26.7318 67.6829 26.7064 67.3613 26.6895C67.0397 26.6556 66.7096 26.6302 66.3711 26.6133C66.0495 26.5794 65.6517 26.5456 65.1777 26.5117C64.2637 27.9844 63.4935 29.3047 62.8672 30.4727C62.2578 31.6237 61.7839 32.6816 61.4453 33.6465C61.1237 34.6113 60.9629 35.5254 60.9629 36.3887C60.9629 37.5566 61.4284 38.1406 62.3594 38.1406C63.0026 38.1406 63.8405 37.8021 64.873 37.125C65.9225 36.431 67.319 35.373 69.0625 33.9512V35.6523C64.4922 40.612 61.1152 43.0918 58.9316 43.0918C58.1699 43.0918 57.5521 42.7956 57.0781 42.2031C56.6211 41.6107 56.3926 40.849 56.3926 39.918C56.3926 39.2917 56.5195 38.5469 56.7734 37.6836C57.0443 36.8203 57.5182 35.5169 58.1953 33.7734C57.9583 33.9766 57.7298 34.1797 57.5098 34.3828C57.3066 34.569 57.112 34.7467 56.9258 34.916C56.7565 35.0684 56.5703 35.2376 56.3672 35.4238C56.1641 35.5931 55.9609 35.7708 55.7578 35.957V34.2051C57.5352 32.7155 59.6849 30.1003 62.207 26.3594C61.9531 26.3424 61.7161 26.334 61.4961 26.334C61.276 26.3171 61.0137 26.3086 60.709 26.3086C59.7103 26.3086 58.9655 26.3763 58.4746 26.5117C58.2715 26.5625 58.0768 26.6217 57.8906 26.6895C57.7214 26.7402 57.6029 26.7656 57.5352 26.7656C57.4674 26.7656 57.4336 26.7148 57.4336 26.6133C57.4336 26.0547 57.7806 25.2168 58.4746 24.0996C59.0332 23.1517 59.5579 22.4492 60.0488 21.9922C60.5566 21.5352 61.166 21.2305 61.877 21.0781C62.6048 20.9089 63.6204 20.8242 64.9238 20.8242ZM88.0039 34.002V35.6016C86.5312 37.1081 85.2533 38.3438 84.1699 39.3086C83.1035 40.2565 82.1641 40.9759 81.3516 41.4668C80.556 41.9577 79.8789 42.2031 79.3203 42.2031C78 42.2031 77.3398 41.4245 77.3398 39.8672C77.3398 38.6146 77.7461 37.1673 78.5586 35.5254C79.388 33.8665 80.5729 31.9199 82.1133 29.6855C81.3516 30.1087 80.6322 30.5996 79.9551 31.1582C79.278 31.6999 78.6771 32.2754 78.1523 32.8848C77.6276 33.4772 77.1875 33.985 76.832 34.4082C75.7318 35.6439 74.6738 36.9134 73.6582 38.2168C72.6426 39.5033 71.957 40.3411 71.6016 40.7305C71.2461 41.1198 70.9076 41.3145 70.5859 41.3145C69.2656 41.3145 68.6055 39.6895 68.6055 36.4395C68.6055 35.373 68.7663 34.1966 69.0879 32.9102C69.4095 31.6237 70.2728 29.9225 71.6777 27.8066C74.64 23.3717 77.1706 19.7493 79.2695 16.9395C81.3854 14.1126 83.1374 11.9798 84.5254 10.541C85.9134 9.08529 86.8444 8.37435 87.3184 8.4082C87.9108 8.45898 88.3848 8.57747 88.7402 8.76367C89.1126 8.94987 89.2988 9.16146 89.2988 9.39844C89.2988 9.82161 89.0026 10.5241 88.4102 11.5059C87.8346 12.4707 86.8359 13.9857 85.4141 16.0508C83.8737 18.2344 82.7819 19.7747 82.1387 20.6719C81.4954 21.5521 80.5306 22.8132 79.2441 24.4551C77.9746 26.0801 76.8066 27.5358 75.7402 28.8223C74.6908 30.0918 73.4889 31.4714 72.1348 32.9609V36.0078C74.403 33.4857 76.3665 31.4206 78.0254 29.8125C79.6842 28.2044 81.0892 26.9941 82.2402 26.1816C83.3913 25.3522 84.2376 24.9375 84.7793 24.9375C85.2871 24.9375 85.7611 25.2422 86.2012 25.8516C86.6413 26.444 86.8613 26.9349 86.8613 27.3242C86.8613 27.4935 86.7767 27.7051 86.6074 27.959C85.3887 29.4147 84.4154 30.625 83.6875 31.5898C82.9766 32.5378 82.4264 33.3926 82.0371 34.1543C81.6478 34.8991 81.4531 35.5423 81.4531 36.084C81.4531 36.8796 81.834 37.2773 82.5957 37.2773C83.4082 37.2773 85.2109 36.1855 88.0039 34.002ZM112.836 26.918L120.58 15.3652C118.82 15.4329 116.966 15.6868 115.02 16.127C113.073 16.5671 111.406 17.041 110.018 17.5488C108.63 18.0397 107.385 18.5137 106.285 18.9707C105.202 19.4108 104.423 19.724 103.949 19.9102C103.831 19.9102 103.712 19.8678 103.594 19.7832C103.475 19.6986 103.416 19.597 103.416 19.4785C103.416 19.3431 103.805 18.5137 104.584 16.9902C105.38 15.4668 106.311 13.8333 107.377 12.0898C113.301 9.97396 118.532 8.91602 123.068 8.91602C128.316 8.91602 131.955 10.0332 133.986 12.2676C134.714 13.0462 135.273 14.0111 135.662 15.1621C136.068 16.2962 136.271 17.4219 136.271 18.5391C136.271 21.0781 135.738 23.3887 134.672 25.4707C133.622 27.5358 132.116 29.3301 130.152 30.8535C128.189 32.377 125.878 33.5449 123.221 34.3574C120.563 35.153 117.652 35.5508 114.486 35.5508C113.928 35.5508 112.785 35.4492 111.059 35.2461L108.773 39.4102C109.01 39.7656 109.129 40.0534 109.129 40.2734C109.129 40.7982 109.01 41.2383 108.773 41.5938C108.435 42.1016 107.986 42.7702 107.428 43.5996C106.869 44.429 106.488 44.9792 106.285 45.25C106.099 45.5208 105.879 45.7578 105.625 45.9609C105.388 46.1641 105.151 46.2656 104.914 46.2656C104.423 46.2656 104.11 46.1133 103.975 45.8086C103.839 45.5208 103.771 45.1146 103.771 44.5898C103.771 43.8451 104.135 42.6686 104.863 41.0605C105.608 39.4355 106.725 37.2858 108.215 34.6113C107.419 34.3066 106.801 33.9089 106.361 33.418C105.921 32.9271 105.701 32.4447 105.701 31.9707C105.701 30.9212 106.302 29.9479 107.504 29.0508C108.706 28.1536 110.483 27.4427 112.836 26.918ZM115.477 27.6035L114.029 30.041C114.673 30.0749 115.24 30.1087 115.73 30.1426C116.238 30.1764 116.661 30.1934 117 30.1934C119.962 30.1934 122.527 29.7956 124.693 29C126.877 28.2044 128.604 27.2227 129.873 26.0547C131.16 24.8698 132.09 23.6849 132.666 22.5C133.242 21.3151 133.529 20.3249 133.529 19.5293C133.529 18.429 133.089 17.5658 132.209 16.9395C131.329 16.3132 130.059 15.89 128.4 15.6699C126.758 15.4329 124.634 15.3145 122.027 15.3145C122.061 15.5007 122.078 15.7292 122.078 16C122.078 16.8802 121.613 18.0397 120.682 19.4785L116.264 26.4102L119.59 26.0293C119.861 26.0293 119.996 26.1562 119.996 26.4102C119.996 26.6302 119.776 26.7826 119.336 26.8672L115.477 27.6035ZM136.779 29.457C139.352 27.1211 141.849 25.3861 144.27 24.252C146.69 23.1178 148.561 22.5508 149.881 22.5508C150.236 22.5508 150.566 22.7031 150.871 23.0078C151.176 23.2956 151.413 23.6341 151.582 24.0234C151.768 24.4128 151.861 24.7005 151.861 24.8867C151.861 25.1914 151.743 25.4199 151.506 25.5723C151.269 25.7077 150.854 25.877 150.262 26.0801C150.38 26.3509 150.533 26.6979 150.719 27.1211C150.905 27.5443 151.049 27.8913 151.15 28.1621C151.252 28.416 151.303 28.6445 151.303 28.8477C151.303 29.2539 150.888 30.0156 150.059 31.1328C149.246 32.2331 148.671 33.0456 148.332 33.5703C148.01 34.0951 147.85 34.7383 147.85 35.5C147.85 36.7526 148.425 37.3789 149.576 37.3789C150.761 37.3789 152.615 36.2702 155.137 34.0527V35.6016C150.854 40.3581 147.79 42.7363 145.945 42.7363C145.285 42.7363 144.811 42.5163 144.523 42.0762C144.253 41.653 144.117 41.0182 144.117 40.1719C144.117 38.8346 144.6 36.8965 145.564 34.3574C143.093 37.0996 141.257 39.0547 140.055 40.2227C138.853 41.3737 137.863 41.9492 137.084 41.9492C136.712 41.9492 136.246 41.6276 135.688 40.9844C135.129 40.3411 134.63 39.5117 134.189 38.4961C133.766 37.4635 133.555 36.3971 133.555 35.2969C133.555 34.5013 133.631 33.8411 133.783 33.3164C133.936 32.7747 134.232 32.2246 134.672 31.666C135.112 31.1074 135.814 30.3711 136.779 29.457ZM148.941 26.6641C144.54 28.6784 141.4 30.388 139.521 31.793C137.66 33.1979 136.729 34.6452 136.729 36.1348C136.729 36.6764 136.822 37.125 137.008 37.4805C137.194 37.819 137.448 37.9883 137.77 37.9883C137.956 37.9883 138.286 37.8698 138.76 37.6328C140.537 36.5833 142.162 35.2207 143.635 33.5449C145.107 31.8522 146.876 29.5586 148.941 26.6641ZM163.846 20.8242H164.938C165.835 19.2161 166.647 18.082 167.375 17.4219C168.103 16.7448 168.932 16.4062 169.863 16.4062C170.794 16.4062 171.26 16.6178 171.26 17.041C171.26 17.2441 170.896 17.7943 170.168 18.6914C169.44 19.5885 168.89 20.3418 168.518 20.9512C169.093 21.0189 169.601 21.0781 170.041 21.1289C170.498 21.1797 170.854 21.222 171.107 21.2559C170.143 23.0501 168.932 24.8867 167.477 26.7656C167.003 26.7318 166.605 26.7064 166.283 26.6895C165.962 26.6556 165.632 26.6302 165.293 26.6133C164.971 26.5794 164.574 26.5456 164.1 26.5117C163.186 27.9844 162.415 29.3047 161.789 30.4727C161.18 31.6237 160.706 32.6816 160.367 33.6465C160.046 34.6113 159.885 35.5254 159.885 36.3887C159.885 37.5566 160.35 38.1406 161.281 38.1406C161.924 38.1406 162.762 37.8021 163.795 37.125C164.844 36.431 166.241 35.373 167.984 33.9512V35.6523C163.414 40.612 160.037 43.0918 157.854 43.0918C157.092 43.0918 156.474 42.7956 156 42.2031C155.543 41.6107 155.314 40.849 155.314 39.918C155.314 39.2917 155.441 38.5469 155.695 37.6836C155.966 36.8203 156.44 35.5169 157.117 33.7734C156.88 33.9766 156.652 34.1797 156.432 34.3828C156.229 34.569 156.034 34.7467 155.848 34.916C155.678 35.0684 155.492 35.2376 155.289 35.4238C155.086 35.5931 154.883 35.7708 154.68 35.957V34.2051C156.457 32.7155 158.607 30.1003 161.129 26.3594C160.875 26.3424 160.638 26.334 160.418 26.334C160.198 26.3171 159.936 26.3086 159.631 26.3086C158.632 26.3086 157.887 26.3763 157.396 26.5117C157.193 26.5625 156.999 26.6217 156.812 26.6895C156.643 26.7402 156.525 26.7656 156.457 26.7656C156.389 26.7656 156.355 26.7148 156.355 26.6133C156.355 26.0547 156.702 25.2168 157.396 24.0996C157.955 23.1517 158.48 22.4492 158.971 21.9922C159.479 21.5352 160.088 21.2305 160.799 21.0781C161.527 20.9089 162.542 20.8242 163.846 20.8242ZM171.996 34.916V35.5508C171.996 36.5495 172.242 37.3281 172.732 37.8867C173.223 38.4453 173.867 38.7246 174.662 38.7246C175.492 38.7246 176.346 38.5299 177.227 38.1406C178.124 37.7513 179.012 37.235 179.893 36.5918C180.773 35.9486 181.848 35.0853 183.117 34.002V35.5508C181.204 37.8529 179.41 39.6217 177.734 40.8574C176.059 42.0762 174.357 42.6855 172.631 42.6855C171.124 42.6855 169.931 42.1016 169.051 40.9336C168.171 39.7656 167.73 38.166 167.73 36.1348C167.73 34.3574 168.145 32.7493 168.975 31.3105C169.804 29.8548 171.158 28.3229 173.037 26.7148C174.324 25.6146 175.602 24.7852 176.871 24.2266C178.141 23.668 179.275 23.3887 180.273 23.3887C181.069 23.3887 181.695 23.5749 182.152 23.9473C182.626 24.3027 182.863 24.8444 182.863 25.5723C182.863 26.6387 182.465 27.7051 181.67 28.7715C180.874 29.821 179.656 30.8704 178.014 31.9199C176.389 32.9525 174.383 33.9512 171.996 34.916ZM172.25 33.2656C173.773 32.6732 175.077 31.9368 176.16 31.0566C177.243 30.1764 178.039 29.3385 178.547 28.543C179.072 27.7305 179.334 27.138 179.334 26.7656C179.334 26.3763 179.156 26.1816 178.801 26.1816C178.496 26.1816 177.997 26.3763 177.303 26.7656C176.626 27.1549 175.932 27.6628 175.221 28.2891C174.527 28.9154 173.9 29.6517 173.342 30.498C172.783 31.3444 172.419 32.2669 172.25 33.2656ZM195.254 33.7227V35.6016C191.716 40.2904 188.839 42.6348 186.621 42.6348C185.419 42.6348 184.471 41.9831 183.777 40.6797C183.1 39.3594 182.762 37.6328 182.762 35.5C182.762 33.7734 183.168 31.7253 183.98 29.3555C184.793 26.9688 185.876 24.5566 187.23 22.1191C188.602 19.6647 190.015 17.5319 191.471 15.7207C192.943 13.8926 194.306 12.6146 195.559 11.8867C196.066 11.582 196.464 11.4297 196.752 11.4297C197.107 11.4297 197.344 11.5905 197.463 11.9121C197.581 12.2168 197.641 12.75 197.641 13.5117C197.641 15.8646 196.684 18.7591 194.771 22.1953C192.859 25.6146 190.193 29.11 186.773 32.6816C186.604 33.5618 186.52 34.2389 186.52 34.7129C186.52 35.7962 186.748 36.6764 187.205 37.3535C187.679 38.0306 188.331 38.3691 189.16 38.3691C189.583 38.3691 190.04 38.2083 190.531 37.8867C191.022 37.5482 191.538 37.1335 192.08 36.6426C192.622 36.1517 193.68 35.1784 195.254 33.7227ZM187.662 29.1523C188.542 28.2891 189.389 27.3073 190.201 26.207C191.031 25.1068 191.809 23.9303 192.537 22.6777C193.265 21.4251 193.832 20.2995 194.238 19.3008C194.661 18.3021 194.873 17.5488 194.873 17.041C194.873 16.6517 194.738 16.457 194.467 16.457C194.365 16.457 194.171 16.5501 193.883 16.7363C192.85 17.5827 191.691 19.2415 190.404 21.7129C189.118 24.1673 188.204 26.6471 187.662 29.1523Z" fill="white"/>
</g>
<defs>
<clipPath id="clip0_18_2">
<rect width="200" height="50" fill="white"/>
</clipPath>
</defs>
</svg>
